<?xml version="1.0" standalone="no"?>
<!DOCTYPE svg PUBLIC "-//W3C//DTD SVG 20010904//EN"
 "http://www.w3.org/TR/2001/REC-SVG-20010904/DTD/svg10.dtd">
<svg version="1.0" xmlns="http://www.w3.org/2000/svg"
 width="512.000000pt" height="512.000000pt" viewBox="0 0 512.000000 512.000000"
 preserveAspectRatio="xMidYMid meet">

<g transform="translate(0.000000,512.000000) scale(0.100000,-0.100000)"
fill="#000000" stroke="none">
<path d="M213 4650 c-70 -42 -68 -24 -71 -527 l-3 -453 116 0 115 0 0 319 0
320 26 20 c33 26 65 27 95 2 l24 -19 3 -321 3 -321 47 0 47 0 -3 132 c-4 152
6 199 43 216 36 17 48 15 79 -9 l26 -20 0 -160 0 -159 90 0 90 0 0 283 c0 283
0 284 23 305 33 31 80 29 106 -4 20 -26 21 -39 21 -305 l0 -279 88 0 87 0 -3
132 c-4 152 6 199 43 216 36 17 48 15 79 -9 l26 -20 0 -160 0 -159 90 0 90 0
0 350 0 351 26 26 c20 20 31 24 57 19 68 -13 67 -9 67 -397 l0 -349 245 0 245
0 0 446 c0 494 0 494 -65 534 -32 20 -47 20 -976 20 -918 0 -945 -1 -976 -20z"/>
<path d="M2955 4650 c-66 -43 -65 -37 -65 -532 l0 -448 301 0 c283 0 301 1
293 18 -42 96 -57 162 -57 247 0 106 19 177 69 261 46 76 85 118 159 166 253
166 604 71 736 -200 66 -134 66 -321 0 -449 l-21 -43 305 0 306 0 -3 453 c-3
503 -1 485 -71 527 -31 19 -58 20 -977 20 -924 0 -946 -1 -975 -20z"/>
<path d="M3858 4292 l-26 -7 70 -130 c38 -71 72 -132 74 -134 5 -5 285 27 292
34 11 11 -29 78 -79 130 -64 67 -144 105 -237 110 -37 2 -79 1 -94 -3z"/>
<path d="M3651 4160 c-36 -46 -58 -87 -49 -94 1 -2 46 -10 99 -17 l96 -15 -46
88 c-25 48 -49 88 -53 88 -4 0 -25 -23 -47 -50z"/>
<path d="M3570 3906 c0 -45 44 -147 81 -190 l41 -46 243 0 243 0 33 41 c33 42
78 140 79 172 0 21 11 21 -192 -3 l-168 -19 -157 25 c-87 13 -168 26 -180 29
-16 4 -23 1 -23 -9z"/>
</g>
</svg>
